<svg width="48" height="48" viewBox="0 0 48 48" fill="none" xmlns="http://www.w3.org/2000/svg">
<path d="M31.599 31.0005C33.4395 29.9775 33.201 26.0355 31.068 22.1895C30.153 20.5335 29.028 19.1925 27.903 18.255C26.5577 19.2534 24.9282 19.7948 23.253 19.8C21.5752 19.7963 19.9428 19.2548 18.5955 18.255C17.4705 19.1925 16.3485 20.535 15.4305 22.1895C13.296 26.034 13.0605 29.9775 14.9055 31.0005C15.7275 31.4685 16.5945 31.1175 17.4885 30.2565C17.3211 31.1841 17.2373 32.1249 17.238 33.0675C17.238 37.4745 18.948 41.0355 21.0525 41.0355C22.3215 41.0355 22.95 39.738 23.2515 37.7535C23.5515 39.7245 24.1815 41.0355 25.4415 41.0355C27.537 41.0355 29.2605 37.473 29.2605 33.0675C29.2605 32.0775 29.1675 31.1325 29.0085 30.258C29.9085 31.1205 30.7725 31.4775 31.5975 31.0035L31.599 31.0005ZM23.25 18.3C24.101 18.3127 24.9461 18.156 25.736 17.8391C26.526 17.5221 27.245 17.0512 27.8512 16.4537C28.4574 15.8563 28.9387 15.1442 29.2672 14.359C29.5956 13.5738 29.7646 12.7311 29.7643 11.88C29.764 11.0288 29.5944 10.1862 29.2654 9.40124C28.9364 8.61625 28.4546 7.90453 27.848 7.30751C27.2413 6.71049 26.522 6.24009 25.7319 5.92368C24.9417 5.60728 24.0965 5.45118 23.2455 5.46449C21.5604 5.49084 19.9533 6.17888 18.7711 7.38006C17.589 8.58123 16.9267 10.1992 16.9273 11.8845C16.9279 13.5698 17.5913 15.1872 18.7743 16.3876C19.9573 17.5879 21.5649 18.2748 23.25 18.3ZM36.141 22.371C37.5117 22.3309 38.8128 21.7583 39.7682 20.7746C40.7236 19.7908 41.258 18.4735 41.258 17.1022C41.258 15.7309 40.7236 14.4136 39.7682 13.4299C38.8128 12.4462 37.5117 11.8736 36.141 11.8335C34.7432 11.8337 33.4028 12.3891 32.4146 13.3776C31.4263 14.3661 30.8713 15.7067 30.8715 17.1045C30.8717 18.5022 31.4271 19.8427 32.4156 20.8309C33.4041 21.8191 34.7447 22.3742 36.1425 22.374L36.141 22.371ZM42.561 25.566C41.808 24.204 40.887 23.103 39.963 22.3335C38.8577 23.1524 37.5196 23.5965 36.144 23.601C35.01 23.601 33.954 23.2905 33.03 22.776C33.774 24.4155 34.2345 26.076 34.32 27.561C34.461 29.835 33.75 31.521 32.328 32.3085C32.0232 32.4759 31.6919 32.5896 31.3485 32.6445C31.263 33.2325 31.2045 33.8445 31.2045 34.4895C31.2045 38.109 32.607 41.0325 34.3365 41.0325C35.3775 41.0325 35.8965 39.9675 36.1425 38.3385C36.387 39.9585 36.9045 41.0325 37.9425 41.0325C39.66 41.0325 41.0775 38.1075 41.0775 34.4925C41.0775 33.678 40.998 32.9025 40.8675 32.1825C41.6055 32.892 42.3165 33.1845 42.9945 32.7945C44.505 31.9545 44.31 28.7175 42.5595 25.5645L42.561 25.566ZM10.359 22.371C11.4008 22.3704 12.419 22.0609 13.2849 21.4817C14.1508 20.9025 14.8256 20.0795 15.2238 19.1169C15.6221 18.1542 15.726 17.0951 15.5224 16.0734C15.3188 15.0517 14.8168 14.1133 14.08 13.3769C13.3431 12.6404 12.4044 12.139 11.3826 11.936C10.3608 11.733 9.30174 11.8375 8.33931 12.2363C7.37688 12.6351 6.55431 13.3103 5.97559 14.1766C5.39687 15.0428 5.08798 16.0612 5.08798 17.103C5.08838 18.5008 5.64384 19.8413 6.63226 20.8297C7.62068 21.8181 8.96114 22.3736 10.359 22.374V22.371ZM14.1615 32.304C11.7735 30.9765 11.5545 27.018 13.4775 22.773C12.527 23.3126 11.4535 23.5983 10.3605 23.6025C8.92648 23.6025 7.61248 23.1225 6.53548 22.3335C5.61298 23.1015 4.69348 24.2025 3.93748 25.563C2.18698 28.719 1.99498 31.956 3.50698 32.793C4.18198 33.18 4.89448 32.8905 5.62798 32.184C5.49325 32.9456 5.42549 33.7176 5.42548 34.491C5.42548 38.109 6.82798 41.031 8.55748 41.031C9.59848 41.031 10.1175 39.966 10.3635 38.3385C10.611 39.9585 11.1285 41.0325 12.1635 41.0325C13.884 41.0325 15.2985 38.1075 15.2985 34.4925C15.2985 33.843 15.2385 33.2295 15.153 32.6415C14.8058 32.5868 14.4708 32.472 14.163 32.3025L14.1615 32.304Z" fill="white"/>
</svg>
