<svg width="48" height="48" viewBox="0 0 48 48" fill="none" xmlns="http://www.w3.org/2000/svg">
<path d="M30 44.13V34.13C30 32.5387 29.3679 31.0126 28.2426 29.8874C27.1174 28.7621 25.5913 28.13 24 28.13C22.4087 28.13 20.8826 28.7621 19.7574 29.8874C18.6321 31.0126 18 32.5387 18 34.13V44.13H8C6.93913 44.13 5.92172 43.7086 5.17157 42.9584C4.42143 42.2083 4 41.1909 4 40.13V18.394C3.99999 17.7032 4.17886 17.0243 4.51919 16.4232C4.85951 15.8221 5.34969 15.3194 5.942 14.964L21.942 5.36399C22.5637 4.99099 23.275 4.79395 24 4.79395C24.725 4.79395 25.4363 4.99099 26.058 5.36399L42.058 14.964C42.6503 15.3194 43.1405 15.8221 43.4808 16.4232C43.8211 17.0243 44 17.7032 44 18.394V40.13C44 41.1909 43.5786 42.2083 42.8284 42.9584C42.0783 43.7086 41.0609 44.13 40 44.13H30Z" fill="white"/>
</svg>
