<svg width="49" height="49" viewBox="0 0 49 49" fill="none" xmlns="http://www.w3.org/2000/svg">
<path fill-rule="evenodd" clip-rule="evenodd" d="M9.5 42.5C9.5 42.5 6.5 42.5 6.5 39.5C6.5 36.5 9.5 27.5 24.5 27.5C39.5 27.5 42.5 36.5 42.5 39.5C42.5 42.5 39.5 42.5 39.5 42.5H9.5ZM24.5 24.5C26.8869 24.5 29.1761 23.5518 30.864 21.864C32.5518 20.1761 33.5 17.8869 33.5 15.5C33.5 13.1131 32.5518 10.8239 30.864 9.13604C29.1761 7.44821 26.8869 6.5 24.5 6.5C22.1131 6.5 19.8239 7.44821 18.136 9.13604C16.4482 10.8239 15.5 13.1131 15.5 15.5C15.5 17.8869 16.4482 20.1761 18.136 21.864C19.8239 23.5518 22.1131 24.5 24.5 24.5Z" fill="white"/>
</svg>
